<svg aria-hidden="true" style="position: absolute; width: 0; height: 0; overflow: hidden;" version="1.1" xmlns="http://www.w3.org/2000/svg" xmlns:xlink="http://www.w3.org/1999/xlink">
<defs>
<symbol id="icon-antenna" viewBox="0 0 32 32">
<path fill="#212121" style="fill: var(--color1, #212121)" d="M30.773 22.098l-8.443-8.505 0.937-4.615c0.242 0.094 0.499 0.144 0.758 0.146h0.006c1.192 0.014 2.17-0.941 2.184-2.133s-0.941-2.17-2.133-2.184c-1.192-0.014-2.17 0.941-2.184 2.133-0.003 0.255 0.039 0.509 0.125 0.749l-4.96 0.605-8.091-8.133c-0.099-0.101-0.235-0.159-0.377-0.16-0.14 0.001-0.274 0.056-0.373 0.155l-1.513 1.504c-0.208 0.208-0.208 0.546 0 0.754l0.814 0.826c-3.153 5.798-2.129 12.978 2.519 17.663 0.043 0.041 0.092 0.074 0.146 0.098-0.034 0.18-0.051 0.364-0.052 0.547v6.187h-6.4c-1.472 0.002-2.665 1.195-2.667 2.667v1.067c0 0.295 0.239 0.533 0.533 0.533h24.533c0.295 0 0.533-0.239 0.533-0.533v-1.067c-0.002-1.472-1.195-2.665-2.667-2.667h-6.4v-2.742c1.003 0.21 2.024 0.317 3.049 0.32 2.458-0.003 4.877-0.615 7.040-1.783l0.818 0.823c0.099 0.101 0.235 0.159 0.377 0.16 0.14-0.001 0.274-0.056 0.373-0.155l1.513-1.504c0.208-0.208 0.208-0.546 0-0.754zM23.28 6.233c0.418-0.415 1.093-0.414 1.508 0.004s0.414 1.093-0.004 1.508c-0.2 0.199-0.47 0.31-0.752 0.31h-0.003c-0.589-0.003-1.064-0.483-1.061-1.072 0.002-0.282 0.115-0.552 0.314-0.751h-0.002zM22.024 9.738l-0.598 2.946-1.175-1.182 1.774-1.763zM21.419 8.836l-1.92 1.909-1.485-1.493 3.405-0.415zM24.004 28.8c0.884 0 1.6 0.716 1.6 1.6v0.533h-23.467v-0.533c0-0.884 0.716-1.6 1.6-1.6h20.267zM16.537 26.667v1.067h-5.333v-1.067h5.333zM11.204 25.6v-4.053c0-1.294 1.196-2.347 2.667-2.347s2.667 1.053 2.667 2.347v4.053h-5.333zM17.604 23.904v-2.357c0-1.882-1.675-3.413-3.733-3.413-1.331-0.020-2.576 0.657-3.281 1.786-4.058-4.274-4.971-10.645-2.279-15.887l18.602 18.708c-2.872 1.461-6.165 1.873-9.309 1.163zM28.893 23.22l-21.057-21.181 0.755-0.752 7.935 7.98c0.004 0 0.006 0.007 0.010 0.010l13.115 13.191-0.757 0.752z"></path>
<path fill="#2196f3" style="fill: var(--color2, #2196f3)" d="M13.876 20.267h-0.005c-0.884-0.001-1.601 0.714-1.602 1.598s0.714 1.601 1.598 1.602h0.005c0.884 0.001 1.601-0.714 1.602-1.598s-0.714-1.601-1.598-1.602zM14.249 22.245c-0.1 0.1-0.236 0.156-0.378 0.155-0.295-0.002-0.532-0.242-0.531-0.536 0.001-0.141 0.057-0.276 0.157-0.375s0.233-0.154 0.373-0.155c0.295 0.002 0.532 0.241 0.53 0.536-0.001 0.141-0.057 0.276-0.157 0.375h0.005z"></path>
</symbol>
<symbol id="icon-astronaut" viewBox="0 0 32 32">
<path fill="#2196f3" style="fill: var(--color2, #2196f3)" d="M31.974 4.524c-0.063-0.193-0.229-0.333-0.43-0.363l-1.91-0.278-0.855-1.731c-0.179-0.365-0.777-0.365-0.956 0l-0.855 1.731-1.91 0.278c-0.201 0.029-0.367 0.17-0.431 0.363-0.062 0.193-0.011 0.405 0.135 0.547l1.383 1.348-0.326 1.903c-0.034 0.2 0.048 0.402 0.212 0.522 0.166 0.121 0.382 0.135 0.562 0.040l1.709-0.899 1.709 0.899c0.078 0.041 0.164 0.061 0.249 0.061 0.11 0 0.221-0.034 0.314-0.102 0.164-0.119 0.246-0.322 0.212-0.522l-0.326-1.903 1.383-1.348c0.145-0.142 0.197-0.354 0.135-0.547zM29.511 5.851c-0.125 0.122-0.183 0.299-0.153 0.472l0.191 1.114-1-0.526c-0.078-0.041-0.163-0.061-0.249-0.061s-0.17 0.020-0.249 0.061l-1.001 0.526 0.191-1.114c0.030-0.173-0.028-0.349-0.153-0.472l-0.81-0.789 1.119-0.163c0.174-0.025 0.324-0.134 0.402-0.292l0.5-1.013 0.5 1.013c0.078 0.157 0.228 0.267 0.402 0.292l1.119 0.163-0.809 0.789z"></path>
<path fill="#2196f3" style="fill: var(--color2, #2196f3)" d="M26.134 20.522h-1.067v1.067h1.067v-1.067z"></path>
<path fill="#2196f3" style="fill: var(--color2, #2196f3)" d="M26.134 22.656h-1.067v1.067h1.067v-1.067z"></path>
<path fill="#2196f3" style="fill: var(--color2, #2196f3)" d="M27.2 21.589h-1.067v1.067h1.067v-1.067z"></path>
<path fill="#2196f3" style="fill: var(--color2, #2196f3)" d="M25.067 21.589h-1.067v1.067h1.067v-1.067z"></path>
<path fill="#2196f3" style="fill: var(--color2, #2196f3)" d="M22.4 26.389h-1.067v1.067h1.067v-1.067z"></path>
<path fill="#2196f3" style="fill: var(--color2, #2196f3)" d="M22.4 28.522h-1.067v1.067h1.067v-1.067z"></path>
<path fill="#2196f3" style="fill: var(--color2, #2196f3)" d="M23.467 27.456h-1.067v1.067h1.067v-1.067z"></path>
<path fill="#2196f3" style="fill: var(--color2, #2196f3)" d="M21.333 27.456h-1.067v1.067h1.067v-1.067z"></path>
<path fill="#2196f3" style="fill: var(--color2, #2196f3)" d="M16 24.256h-1.067v1.067h1.067v-1.067z"></path>
<path fill="#2196f3" style="fill: var(--color2, #2196f3)" d="M16 26.389h-1.067v1.067h1.067v-1.067z"></path>
<path fill="#2196f3" style="fill: var(--color2, #2196f3)" d="M17.067 25.322h-1.067v1.067h1.067v-1.067z"></path>
<path fill="#2196f3" style="fill: var(--color2, #2196f3)" d="M14.933 25.322h-1.067v1.067h1.067v-1.067z"></path>
<path fill="#2196f3" style="fill: var(--color2, #2196f3)" d="M5.867 6.122h-1.067v1.067h1.067v-1.067z"></path>
<path fill="#2196f3" style="fill: var(--color2, #2196f3)" d="M5.867 8.255h-1.067v1.067h1.067v-1.067z"></path>
<path fill="#2196f3" style="fill: var(--color2, #2196f3)" d="M6.933 7.189h-1.067v1.067h1.067v-1.067z"></path>
<path fill="#2196f3" style="fill: var(--color2, #2196f3)" d="M4.8 7.189h-1.067v1.067h1.067v-1.067z"></path>
<path fill="#212121" style="fill: var(--color1, #212121)" d="M24.715 14.159c-0.287-0.388-0.709-0.637-1.188-0.705-0.481-0.068-0.956 0.058-1.34 0.352l-1.252 0.96-1.898 1.417-1.358-0.541c2.421-1.086 4.114-3.508 4.114-6.32 0-3.823-3.123-6.933-6.961-6.933s-6.961 3.11-6.961 6.933c0 1.386 0.414 2.674 1.12 3.758l-2.764-0.024c-0.002 0-0.003 0-0.005 0-0.009 0-0.015 0.004-0.023 0.005-0.053 0.002-0.105 0.013-0.155 0.031-0.013 0.005-0.026 0.008-0.038 0.013-0.006 0.003-0.013 0.003-0.019 0.006l-3.233 1.596c-0.001 0-0.001 0-0.001 0.001l-1.893 0.911c-0.021 0.009-0.042 0.021-0.063 0.035-0.755 0.502-1.012 1.489-0.598 2.295 0.22 0.429 0.595 0.745 1.056 0.889 0.178 0.055 0.359 0.083 0.539 0.083 0.29 0 0.577-0.071 0.839-0.211l1.388-0.738 2.264-1.169 1.357-0.008-5.442 5.416c-0.001 0.001-0.001 0.001-0.002 0.001l-1.339 1.333c-0.316 0.315-0.49 0.732-0.49 1.178s0.174 0.863 0.49 1.179c0.325 0.323 0.752 0.485 1.179 0.485s0.854-0.162 1.18-0.485l1.314-1.309 1.741-1.3 0.901 0.897-1.762 1.754c-0 0.001-0.001 0.001-0.002 0.001l-1.339 1.333c-0.316 0.315-0.49 0.732-0.49 1.178s0.174 0.863 0.49 1.179c0.325 0.323 0.753 0.485 1.18 0.485s0.855-0.162 1.18-0.485l3.482-3.467c0.001-0.001 0.001-0.001 0.001-0.002l1.010-1-0.004-0.004c0.006-0.006 0.015-0.009 0.022-0.015l5.166-5.658 3.471 0.494c0.025 0.004 0.050 0.005 0.075 0.005 0.065 0 0.127-0.015 0.187-0.038 0.018-0.006 0.033-0.015 0.050-0.023 0.019-0.010 0.039-0.015 0.058-0.027l3.213-2.133c0.012-0.008 0.018-0.021 0.029-0.029 0.013-0.010 0.029-0.014 0.041-0.026l1.271-1.191c0.662-0.62 0.753-1.635 0.212-2.362zM2.13 17.77c-0.173 0.093-0.37 0.111-0.558 0.052-0.187-0.058-0.338-0.186-0.427-0.358-0.161-0.314-0.068-0.695 0.214-0.902l1.314-0.632 0.449 1.312-0.992 0.528zM5.628 15.942l-1.548 0.8-0.439-1.283 2.027-1.001-0.040 1.484zM20.727 9.322c0 0.918-0.219 1.785-0.599 2.559l-4.181-1.899c-0.044-0.573-0.341-1.075-0.788-1.388l1.464-4.86c2.378 0.756 4.105 2.974 4.105 5.588zM8.938 9.322c0-3.235 2.644-5.867 5.894-5.867 0.253 0 0.5 0.021 0.745 0.052l-1.432 4.754c-0.019-0.001-0.037-0.006-0.057-0.006-1.033 0-1.873 0.837-1.873 1.867s0.84 1.867 1.873 1.867c0.694 0 1.294-0.383 1.618-0.945l3.862 1.755c-1.075 1.446-2.795 2.39-4.737 2.39-3.25 0-5.894-2.632-5.894-5.867zM14.894 10.122c0 0.441-0.362 0.8-0.806 0.8s-0.806-0.359-0.806-0.8c0-0.441 0.362-0.8 0.806-0.8s0.806 0.359 0.806 0.8zM2.465 25.146c-0.236 0.234-0.619 0.234-0.854 0.001-0.114-0.114-0.176-0.263-0.176-0.423s0.062-0.309 0.176-0.421l0.962-0.958 0.851 0.848-0.959 0.955zM5.679 28.88c-0.236 0.234-0.619 0.235-0.855 0.001-0.114-0.114-0.176-0.263-0.176-0.423s0.062-0.309 0.176-0.421l0.963-0.959 0.852 0.848-0.96 0.955zM9.16 25.411c-0.001 0-0.001 0-0.002 0.001l-1.765 1.76-0.852-0.848 1.763-1.755c0 0 0 0 0-0s0.001-0.001 0.002-0.001c0.040-0.040 0.065-0.088 0.090-0.135 0.007-0.014 0.020-0.026 0.026-0.040 0.017-0.041 0.019-0.085 0.026-0.129 0.003-0.025 0.014-0.047 0.014-0.073 0-0.036-0.013-0.070-0.020-0.106-0.006-0.032-0.006-0.065-0.019-0.095-0.020-0.050-0.055-0.094-0.091-0.138-0.010-0.012-0.014-0.027-0.025-0.038 0 0 0 0-0.001 0s-0.001-0.002-0.001-0.002l-1.607-1.6c-0.017-0.017-0.039-0.024-0.058-0.038-0.028-0.022-0.055-0.042-0.087-0.058-0.030-0.015-0.061-0.024-0.093-0.033-0.034-0.010-0.067-0.017-0.103-0.020-0.033-0.002-0.063 0.001-0.095 0.005-0.036 0.004-0.069 0.009-0.104 0.020-0.034 0.011-0.063 0.027-0.094 0.045-0.020 0.011-0.042 0.015-0.061 0.029l-1.773 1.324-0.901-0.897 2.399-2.386 4.361 4.289-0.928 0.919zM15.979 18.394c-0.015-0.002-0.030 0.004-0.045 0.003-0.039-0.002-0.076 0.001-0.115 0.007-0.030 0.005-0.059 0.011-0.088 0.021-0.034 0.012-0.065 0.028-0.097 0.047-0.030 0.018-0.057 0.037-0.083 0.061-0.013 0.011-0.028 0.017-0.040 0.029l-4.698 5.146-4.328-4.257 2.833-2.818c0.209-0.208 0.21-0.546 0.002-0.755-0.105-0.105-0.243-0.157-0.381-0.156v-0.001l-2.219 0.013 0.028-1.607 3.104 0.027c1.265 1.294 3.029 2.101 4.981 2.101 0.437 0 0.864-0.045 1.279-0.123 0.040 0.032 0.079 0.065 0.13 0.085l2.41 0.96 0.331 1.644-3.003-0.427zM20.020 18.572l-0.313-1.558 1.446-1.080 0.947 1.257-2.080 1.381zM23.774 15.741l-0.838 0.785-0.931-1.236 0.831-0.637c0.155-0.119 0.351-0.168 0.543-0.143 0.193 0.027 0.364 0.128 0.48 0.284 0.217 0.292 0.18 0.699-0.085 0.947z"></path>
<path fill="#212121" style="fill: var(--color1, #212121)" d="M13.602 18.544l-2.143-2.133c-0.207-0.207-0.545-0.207-0.753 0l-2.142 2.133c-0.1 0.101-0.157 0.236-0.157 0.378s0.056 0.278 0.157 0.378l2.142 2.133c0.104 0.103 0.241 0.155 0.377 0.155s0.273-0.052 0.376-0.155l2.143-2.133c0.1-0.1 0.157-0.236 0.157-0.378s-0.057-0.278-0.157-0.378zM11.083 20.303l-1.387-1.381 1.387-1.381 1.387 1.381-1.387 1.381z"></path>
<path fill="#212121" style="fill: var(--color1, #212121)" d="M17.164 5.071l-0.258 1.036c0.071 0.018 1.738 0.452 1.738 2.149h1.067c-0-2.017-1.666-2.965-2.547-3.185z"></path>
<path fill="#212121" style="fill: var(--color1, #212121)" d="M19.711 9.322h-1.067v1.067h1.067v-1.067z"></path>
</symbol>
<symbol id="icon-client1" viewBox="0 0 57 32">
<path d="M20.267 3.733l3.738 3.538-6.938-0.004v17.166h18.133v-6.564l3.733 3.534v-17.671h-18.667zM35.036 17.455l-10.597-10.032h10.597v10.032zM31.746 21.923h-11.81v-11.545h0.835v10.764h10.975v0.782zM22.725 26.72l-0.436 0.898-0.436-0.898h-0.366l0.637 1.198v0.698h0.331v-0.698l0.635-1.198h-0.365zM23.273 28.615l0.154-0.441h0.734l0.155 0.441h0.344l-0.717-1.896h-0.296l-0.716 1.896h0.342zM23.794 27.122l0.275 0.786h-0.549l0.275-0.786zM25.531 27.863c-0.048 0.073-0.072 0.153-0.072 0.241 0 0.16 0.056 0.29 0.168 0.389s0.263 0.148 0.451 0.148 0.349-0.051 0.484-0.152l0.107 0.126h0.367l-0.279-0.329c0.109-0.149 0.164-0.341 0.164-0.574h-0.275c0 0.128-0.026 0.243-0.079 0.348l-0.366-0.432 0.129-0.094c0.091-0.066 0.157-0.132 0.197-0.198s0.060-0.14 0.060-0.219c0-0.12-0.044-0.22-0.133-0.301s-0.201-0.122-0.339-0.122c-0.153 0-0.274 0.043-0.365 0.13s-0.135 0.203-0.135 0.352c0 0.061 0.014 0.124 0.043 0.189s0.081 0.144 0.155 0.237c-0.141 0.101-0.235 0.188-0.283 0.262zM26.386 28.282c-0.093 0.071-0.193 0.107-0.299 0.107-0.095 0-0.17-0.027-0.227-0.082s-0.085-0.126-0.085-0.214c0-0.102 0.052-0.192 0.156-0.271l0.040-0.029 0.414 0.488zM26.046 27.442c-0.089-0.11-0.134-0.202-0.134-0.275 0-0.063 0.018-0.116 0.055-0.158s0.085-0.063 0.147-0.063c0.057 0 0.105 0.018 0.142 0.053s0.056 0.077 0.056 0.126c0 0.075-0.027 0.136-0.081 0.184l-0.040 0.033-0.145 0.099zM29.132 28.472c0.13-0.114 0.205-0.272 0.224-0.474h-0.328c-0.017 0.135-0.059 0.232-0.124 0.29s-0.162 0.087-0.292 0.087c-0.142 0-0.249-0.054-0.323-0.161s-0.109-0.264-0.109-0.469v-0.168c0.002-0.202 0.041-0.355 0.117-0.46s0.188-0.158 0.331-0.158c0.123 0 0.217 0.030 0.28 0.091s0.104 0.158 0.12 0.294h0.328c-0.021-0.207-0.095-0.368-0.223-0.482s-0.296-0.171-0.505-0.171c-0.155 0-0.293 0.037-0.411 0.111s-0.209 0.179-0.272 0.315c-0.063 0.136-0.095 0.294-0.095 0.473v0.177c0.003 0.174 0.035 0.328 0.098 0.46s0.151 0.234 0.266 0.306c0.115 0.071 0.249 0.107 0.4 0.107 0.216 0 0.389-0.056 0.52-0.169zM31.068 28.206c0.064-0.141 0.096-0.304 0.096-0.49v-0.105c-0.001-0.185-0.034-0.347-0.099-0.486s-0.158-0.247-0.277-0.32c-0.119-0.075-0.256-0.112-0.41-0.112s-0.292 0.038-0.411 0.113c-0.119 0.075-0.211 0.183-0.277 0.324s-0.098 0.305-0.098 0.49v0.107c0.001 0.181 0.034 0.342 0.099 0.48s0.159 0.246 0.279 0.322c0.121 0.075 0.258 0.112 0.411 0.112 0.155 0 0.293-0.037 0.411-0.112s0.212-0.183 0.276-0.323zM30.716 27.135c0.080 0.112 0.12 0.273 0.12 0.483v0.099c0 0.214-0.040 0.376-0.119 0.487s-0.19 0.167-0.336 0.167c-0.144 0-0.257-0.057-0.339-0.171s-0.121-0.275-0.121-0.483v-0.109c0.002-0.204 0.043-0.362 0.122-0.473s0.192-0.168 0.335-0.168c0.146 0 0.258 0.056 0.337 0.168z"></path>
</symbol>
<symbol id="icon-client2" viewBox="0 0 25 32">
<path d="M10.531 1.806h-0.084c-0.129-0.008-0.258-0.011-0.388-0.014v0h-0.28c-0.244 0-0.494 0.006-0.741 0.019-0.019-0.001-0.037-0.001-0.056 0-2.243 0.127-4.44 0.688-6.471 1.651l-0.266 0.128v13.625l0.623-0.211c0.546-0.188 1.129-0.357 1.731-0.513 1.629-0.418 3.301-0.64 4.982-0.662v1.79c-0.223 0.002-0.439 0.008-0.655 0.019h-0.051c-1.294 0.071-2.577 0.268-3.833 0.588-1.59 0.398-3.124 0.996-4.566 1.779v-17.475c1.497-0.873 3.11-1.529 4.79-1.948 1.475-0.381 2.992-0.576 4.515-0.582h0.263c0.314 0.008 0.621 0.022 0.909 0.044 0.759 0.053 1.511 0.173 2.249 0.358v1.762c-0.717-0.167-1.445-0.277-2.179-0.329-0.015-0.001-0.030-0.003-0.045-0.004-0.152-0.013-0.304-0.026-0.446-0.026zM13.633 3.607c0.391 0.030 0.796 0.044 1.205 0.044 1.601-0.006 3.195-0.21 4.747-0.609 1.589-0.4 3.123-0.998 4.564-1.781v17.163c-1.498 0.873-3.111 1.529-4.792 1.948-1.475 0.379-2.992 0.574-4.515 0.581-1.154 0.009-2.304-0.126-3.425-0.404v-17.275c0.265 0.061 0.537 0.117 0.814 0.164 0.455 0.077 0.934 0.133 1.401 0.167zM22.367 3.74l-0.623 0.21c-0.573 0.192-1.15 0.365-1.731 0.518-1.691 0.434-3.428 0.657-5.173 0.663-0.406 0-0.78-0.011-1.141-0.034l-0.497-0.033v14.017l0.427 0.038c0.395 0.034 0.803 0.052 1.214 0.052 1.374-0.006 2.743-0.183 4.074-0.527 1.096-0.275 2.162-0.658 3.184-1.144l0.266-0.128v-13.63z"></path>
<path d="M1.684 25.977c-0.090-0.093-0.197-0.166-0.317-0.214s-0.247-0.071-0.376-0.066c-0.137-0.002-0.273 0.024-0.4 0.075-0.117 0.046-0.222 0.116-0.311 0.205s-0.156 0.196-0.201 0.313c-0.049 0.123-0.073 0.254-0.072 0.387v2.335c-0.006 0.165 0.026 0.328 0.092 0.479 0.055 0.12 0.135 0.226 0.233 0.313 0.093 0.079 0.203 0.135 0.321 0.166 0.114 0.032 0.231 0.048 0.349 0.049 0.13 0.001 0.259-0.027 0.377-0.081 0.117-0.051 0.222-0.124 0.311-0.216 0.087-0.091 0.156-0.197 0.204-0.313 0.050-0.118 0.075-0.244 0.075-0.372v-0.261h-0.61v0.208c0.002 0.071-0.010 0.142-0.036 0.208-0.020 0.050-0.050 0.095-0.089 0.131-0.038 0.031-0.081 0.053-0.128 0.067-0.041 0.014-0.084 0.021-0.128 0.022-0.054 0.006-0.11-0.002-0.16-0.024s-0.094-0.057-0.126-0.101c-0.058-0.094-0.086-0.203-0.081-0.313v-2.177c-0.004-0.121 0.022-0.241 0.075-0.349 0.032-0.049 0.077-0.089 0.129-0.114s0.112-0.034 0.17-0.027c0.053-0.002 0.105 0.009 0.152 0.032s0.089 0.057 0.12 0.099c0.068 0.090 0.104 0.2 0.101 0.313v0.202h0.604v-0.238c0.001-0.14-0.024-0.278-0.075-0.408-0.045-0.122-0.114-0.234-0.204-0.329z"></path>
<path d="M5.31 25.95c-0.195-0.164-0.44-0.255-0.694-0.257-0.124 0-0.248 0.023-0.364 0.066-0.119 0.042-0.228 0.107-0.322 0.191-0.101 0.091-0.182 0.202-0.237 0.327-0.061 0.143-0.092 0.297-0.089 0.452v2.239c-0.004 0.158 0.026 0.314 0.089 0.459 0.055 0.12 0.136 0.227 0.237 0.313 0.093 0.087 0.203 0.154 0.322 0.197 0.117 0.043 0.24 0.065 0.364 0.066s0.248-0.023 0.364-0.066c0.121-0.044 0.233-0.111 0.33-0.197 0.097-0.087 0.176-0.194 0.23-0.313 0.063-0.145 0.093-0.301 0.089-0.459v-2.239c0.003-0.155-0.027-0.31-0.089-0.452-0.054-0.123-0.133-0.235-0.23-0.327zM5.025 28.969c0.005 0.060-0.003 0.12-0.024 0.176s-0.054 0.107-0.097 0.148c-0.081 0.068-0.182 0.105-0.287 0.105s-0.207-0.037-0.287-0.105c-0.043-0.041-0.076-0.092-0.097-0.148s-0.029-0.116-0.024-0.176v-2.239c-0.005-0.060 0.003-0.12 0.024-0.176s0.054-0.107 0.097-0.148c0.081-0.068 0.182-0.105 0.287-0.105s0.207 0.037 0.287 0.105c0.043 0.041 0.076 0.092 0.097 0.148s0.029 0.116 0.024 0.176v2.239z"></path>
<path d="M10.072 29.969v-4.239h-0.587l-0.771 2.244h-0.011l-0.777-2.244h-0.581v4.239h0.606v-2.579h0.011l0.593 1.823h0.302l0.598-1.823h0.011v2.579h0.606z"></path>
<path d="M13.513 26.027c-0.093-0.105-0.211-0.184-0.343-0.232-0.142-0.046-0.29-0.068-0.439-0.066h-0.9v4.239h0.604v-1.656h0.311c0.188 0.009 0.376-0.031 0.545-0.116 0.137-0.076 0.252-0.188 0.332-0.324 0.070-0.113 0.117-0.238 0.139-0.369 0.024-0.16 0.035-0.321 0.033-0.482 0.006-0.204-0.014-0.407-0.059-0.606-0.040-0.147-0.117-0.281-0.223-0.39zM13.201 27.319c-0.003 0.077-0.022 0.152-0.056 0.221-0.035 0.065-0.089 0.117-0.156 0.149-0.089 0.040-0.187 0.058-0.285 0.053h-0.275v-1.441h0.311c0.094-0.005 0.187 0.014 0.272 0.053 0.062 0.036 0.112 0.091 0.142 0.157 0.033 0.074 0.051 0.155 0.053 0.236 0 0.089 0 0.183 0 0.282s0.006 0.2 0 0.291h-0.006z"></path>
<path d="M16.374 25.73h-0.495l-0.934 4.239h0.604l0.177-0.911h0.823l0.177 0.911h0.604l-0.957-4.239zM15.817 28.481l0.297-1.537h0.011l0.296 1.537h-0.604z"></path>
<path d="M20.277 28.284h-0.011l-0.912-2.554h-0.581v4.239h0.604v-2.549h0.012l0.923 2.549h0.568v-4.239h-0.604v2.554z"></path>
<path d="M23.968 25.73l-0.486 1.685h-0.012l-0.486-1.685h-0.64l0.83 2.447v1.792h0.604v-1.792l0.83-2.447h-0.64z"></path>
<path d="M0 31.166h0.291v0.817h0.198v-0.817h0.29v-0.167h-0.778v0.167z"></path>
<path d="M2.447 30.998l-0.381 0.984h0.21l0.081-0.224h0.392l0.084 0.224h0.215l-0.391-0.984h-0.21zM2.416 31.593l0.134-0.365 0.134 0.365h-0.268z"></path>
<path d="M4.866 31.62h0.227v0.127c-0.066 0.053-0.149 0.082-0.234 0.083-0.040 0.002-0.079-0.005-0.116-0.021s-0.068-0.041-0.093-0.072c-0.052-0.075-0.078-0.165-0.073-0.257 0-0.219 0.095-0.329 0.283-0.329 0.050-0.005 0.099 0.008 0.14 0.037s0.070 0.071 0.082 0.12l0.195-0.038c-0.042-0.192-0.181-0.289-0.417-0.289-0.127-0.003-0.25 0.042-0.344 0.127-0.050 0.049-0.088 0.108-0.112 0.174s-0.034 0.135-0.029 0.205c-0.006 0.135 0.039 0.267 0.126 0.369 0.048 0.050 0.107 0.088 0.171 0.113s0.134 0.035 0.203 0.031c0.154 0.004 0.304-0.052 0.417-0.157v-0.388h-0.427v0.166z"></path>
<path d="M7.337 30.998h-0.199v0.984h0.69v-0.167h-0.49v-0.817z"></path>
<path d="M9.426 30.998h-0.199v0.984h0.199v-0.984z"></path>
<path d="M11.469 31.656l-0.403-0.657h-0.193v0.984h0.185v-0.643l0.395 0.643h0.198v-0.984h-0.182v0.657z"></path>
<path d="M13.315 31.549h0.49v-0.167h-0.49v-0.216h0.528v-0.167h-0.727v0.984h0.747v-0.167h-0.548v-0.266z"></path>
<path d="M17.792 31.387h-0.388v-0.388h-0.198v0.984h0.198v-0.43h0.388v0.43h0.198v-0.984h-0.198v0.388z"></path>
<path d="M19.649 31.549h0.492v-0.167h-0.492v-0.216h0.529v-0.167h-0.727v0.984h0.746v-0.167h-0.548v-0.266z"></path>
<path d="M22.168 31.549c0.171-0.027 0.258-0.117 0.258-0.274 0.005-0.042-0.001-0.084-0.018-0.123s-0.044-0.072-0.078-0.096c-0.089-0.045-0.189-0.065-0.288-0.058h-0.417v0.984h0.198v-0.412h0.039c0.042-0.003 0.084 0.005 0.123 0.022 0.029 0.018 0.053 0.043 0.070 0.072l0.215 0.313h0.237l-0.12-0.192c-0.053-0.095-0.128-0.176-0.218-0.236zM21.969 31.413h-0.146v-0.247h0.156c0.068-0.005 0.136 0.002 0.201 0.023 0.014 0.013 0.026 0.029 0.033 0.046s0.011 0.037 0.010 0.056c-0.001 0.019-0.006 0.038-0.015 0.055s-0.022 0.032-0.037 0.043c-0.065 0.020-0.133 0.028-0.201 0.023z"></path>
<path d="M24.067 31.549h0.49v-0.167h-0.49v-0.216h0.529v-0.167h-0.729v0.984h0.747v-0.167h-0.548v-0.266z"></path>
</symbol>
<symbol id="icon-client3" viewBox="0 0 57 32">
<path d="M19.417 26.187c0.008 0 0.017 0.002 0.025 0.005s0.015 0.007 0.020 0.013l0.116 0.111c-0.090 0.090-0.202 0.162-0.327 0.211-0.147 0.053-0.305 0.079-0.464 0.076-0.149 0.003-0.298-0.021-0.436-0.071-0.125-0.045-0.237-0.113-0.329-0.2-0.094-0.089-0.166-0.194-0.212-0.308-0.051-0.127-0.076-0.261-0.074-0.396-0.002-0.135 0.025-0.27 0.080-0.397 0.051-0.115 0.127-0.22 0.225-0.308 0.099-0.087 0.218-0.155 0.349-0.201 0.143-0.048 0.296-0.072 0.449-0.071 0.143-0.003 0.285 0.019 0.417 0.064 0.115 0.043 0.221 0.104 0.313 0.178l-0.097 0.119c-0.007 0.008-0.015 0.016-0.025 0.021-0.012 0.007-0.025 0.010-0.039 0.009-0.015-0.001-0.030-0.005-0.042-0.013l-0.052-0.032-0.073-0.040c-0.031-0.015-0.064-0.028-0.097-0.039-0.043-0.013-0.087-0.024-0.132-0.032-0.057-0.009-0.115-0.013-0.173-0.013-0.111-0.001-0.22 0.017-0.323 0.053-0.096 0.034-0.182 0.084-0.253 0.149-0.073 0.069-0.128 0.15-0.164 0.238-0.041 0.101-0.061 0.207-0.060 0.313-0.002 0.108 0.018 0.216 0.060 0.318 0.035 0.087 0.090 0.167 0.161 0.236 0.067 0.064 0.149 0.114 0.241 0.147 0.095 0.034 0.197 0.051 0.3 0.050 0.059 0.001 0.119-0.003 0.177-0.010 0.096-0.010 0.188-0.039 0.269-0.085 0.041-0.023 0.079-0.049 0.115-0.078 0.015-0.012 0.035-0.020 0.055-0.020z"></path>
<path d="M22.776 25.629c0.002 0.134-0.025 0.267-0.078 0.393-0.047 0.114-0.122 0.218-0.219 0.305s-0.214 0.155-0.344 0.2c-0.285 0.094-0.599 0.094-0.884 0-0.129-0.046-0.245-0.114-0.342-0.201-0.097-0.089-0.172-0.194-0.221-0.308-0.105-0.255-0.105-0.533 0-0.787 0.050-0.115 0.125-0.22 0.221-0.31 0.097-0.084 0.214-0.15 0.342-0.193 0.284-0.096 0.6-0.096 0.884 0 0.129 0.046 0.246 0.114 0.343 0.201 0.096 0.088 0.17 0.191 0.22 0.304 0.054 0.127 0.080 0.261 0.078 0.395zM22.47 25.629c0.002-0.107-0.016-0.214-0.055-0.316-0.033-0.087-0.086-0.168-0.156-0.236-0.068-0.065-0.152-0.116-0.246-0.149-0.207-0.069-0.436-0.069-0.643 0-0.094 0.033-0.178 0.084-0.246 0.149-0.071 0.068-0.125 0.149-0.157 0.236-0.074 0.206-0.074 0.426 0 0.632 0.033 0.087 0.086 0.168 0.157 0.236 0.068 0.065 0.152 0.115 0.246 0.148 0.207 0.067 0.435 0.067 0.643 0 0.093-0.033 0.177-0.083 0.246-0.148 0.070-0.069 0.123-0.149 0.156-0.236 0.039-0.102 0.058-0.209 0.055-0.316z"></path>
<path d="M25.067 25.96l0.030 0.071c0.012-0.025 0.022-0.048 0.033-0.071 0.011-0.024 0.024-0.047 0.038-0.070l0.743-1.174c0.015-0.020 0.028-0.033 0.042-0.037 0.020-0.005 0.040-0.007 0.061-0.006h0.22v1.909h-0.26v-1.404c0-0.018 0-0.038 0-0.059-0.001-0.022-0.001-0.044 0-0.066l-0.747 1.19c-0.009 0.018-0.025 0.033-0.044 0.043s-0.041 0.016-0.064 0.016h-0.042c-0.023 0-0.045-0.005-0.064-0.016s-0.034-0.026-0.044-0.044l-0.769-1.198c0 0.023 0 0.046 0 0.068s0 0.043 0 0.061v1.404h-0.252v-1.905h0.22c0.021-0.001 0.041 0.001 0.061 0.006 0.018 0.008 0.032 0.021 0.041 0.037l0.759 1.175c0.015 0.022 0.028 0.045 0.038 0.068z"></path>
<path d="M27.864 25.865v0.715h-0.291v-1.906h0.649c0.122-0.002 0.244 0.012 0.362 0.042 0.094 0.023 0.181 0.064 0.256 0.119 0.065 0.052 0.114 0.116 0.145 0.187 0.034 0.078 0.051 0.161 0.049 0.244 0.001 0.084-0.017 0.167-0.054 0.244-0.035 0.073-0.089 0.138-0.157 0.191-0.075 0.057-0.162 0.1-0.257 0.126-0.113 0.031-0.232 0.046-0.35 0.044l-0.352-0.005zM27.864 25.66h0.352c0.076 0.001 0.153-0.009 0.225-0.029 0.060-0.018 0.115-0.046 0.163-0.082 0.044-0.035 0.078-0.078 0.099-0.126 0.024-0.051 0.036-0.105 0.035-0.16 0.003-0.053-0.007-0.106-0.029-0.155s-0.057-0.094-0.102-0.13c-0.111-0.075-0.251-0.112-0.391-0.102h-0.352v0.786z"></path>
<path d="M31.772 26.583h-0.23c-0.023 0.001-0.046-0.006-0.064-0.018-0.017-0.012-0.029-0.027-0.038-0.044l-0.198-0.461h-0.993l-0.205 0.461c-0.008 0.017-0.020 0.032-0.036 0.043-0.018 0.013-0.042 0.020-0.065 0.019h-0.23l0.872-1.909h0.302l0.884 1.909zM30.333 25.874h0.82l-0.346-0.777c-0.026-0.058-0.048-0.118-0.065-0.179l-0.034 0.1c-0.010 0.030-0.022 0.058-0.032 0.081l-0.343 0.776z"></path>
<path d="M33.029 24.682c0.017 0.008 0.032 0.020 0.044 0.034l1.272 1.439c0-0.023 0-0.046 0-0.067s0-0.043 0-0.063v-1.352h0.26v1.909h-0.145c-0.021 0.001-0.041-0.003-0.060-0.011-0.018-0.009-0.034-0.021-0.047-0.035l-1.271-1.438c0.001 0.022 0.001 0.044 0 0.066 0 0.021 0 0.040 0 0.058v1.361h-0.26v-1.909h0.154c0.018-0 0.036 0.003 0.052 0.009z"></path>
<path d="M36.748 25.823v0.758h-0.291v-0.758l-0.804-1.15h0.26c0.022-0.001 0.045 0.005 0.063 0.016 0.016 0.012 0.029 0.027 0.039 0.043l0.503 0.742c0.020 0.032 0.038 0.061 0.052 0.088s0.026 0.054 0.036 0.081l0.038-0.082c0.014-0.030 0.031-0.059 0.049-0.087l0.496-0.747c0.010-0.015 0.023-0.028 0.038-0.040 0.017-0.013 0.040-0.020 0.063-0.019h0.263l-0.806 1.155z"></path>
<path d="M24.923 21.47c0.127 0.014 0.255 0.025 0.384 0.035 1.962-0.763 3.622-2.011 4.772-3.588s1.74-3.415 1.695-5.282l-2.162-1.879c0.44 1.988 0.234 4.043-0.594 5.935s-2.245 3.547-4.094 4.779z"></path>
<path d="M24.151 21.383l0.058 0.010c1.975-1.228 3.482-2.942 4.323-4.921s0.981-4.133 0.4-6.181l-3.080-2.676c1.246 2.2 1.747 4.661 1.446 7.098s-1.393 4.75-3.147 6.67z"></path>
<path d="M34.596 14.841c-0.523 2.052-1.794 3.902-3.624 5.276-0.534 0.404-1.111 0.763-1.722 1.074 1.49-0.38 2.859-1.053 4.003-1.966s2.030-2.042 2.592-3.3l-1.249-1.084z"></path>
<path d="M34.106 14.539l-1.778-1.545c-0.034 1.762-0.61 3.483-1.669 4.986s-2.562 2.731-4.352 3.559h0.009c0.399-0 0.798-0.021 1.194-0.062 1.673-0.593 3.151-1.537 4.303-2.748s1.94-2.65 2.295-4.189z"></path>
<path d="M24.409 6.486l-2.122-1.846c-1.897 0.637-3.528 1.756-4.68 3.212s-1.772 3.179-1.778 4.946v0c0.007 1.952 0.763 3.846 2.149 5.383s3.322 2.628 5.501 3.101c1.946-2.060 3.085-4.605 3.252-7.266s-0.647-5.299-2.323-7.53z"></path>
<path d="M39.008 14.255c-0.008-2.316-1.070-4.535-2.955-6.173s-4.439-2.561-7.105-2.567c-1.232-0.001-2.453 0.196-3.602 0.582l12.99 11.286c0.445-0.998 0.673-2.058 0.672-3.128z"></path>
</symbol>
<symbol id="icon-client4" viewBox="0 0 65 32">
<path d="M10.016 9.983h-0.002c-1.827 0-3.308 1.316-3.308 2.94v0.002c0 1.624 1.481 2.94 3.308 2.94h0.002c1.827 0 3.308-1.316 3.308-2.94v-0.002c0-1.624-1.481-2.94-3.308-2.94z"></path>
<path d="M34.434 9.043c-0.005-2.255-1.015-4.417-2.81-6.012s-4.226-2.493-6.764-2.498v0c-2.538 0.004-4.972 0.902-6.767 2.497s-2.806 3.757-2.811 6.013v12.436c0 0 19.149-1.895 19.151-12.434v-0.002z"></path>
<path d="M0 25.562c0.005 1.569 0.708 3.073 1.956 4.183s2.94 1.735 4.706 1.74c1.765-0.005 3.457-0.63 4.705-1.739s1.952-2.613 1.957-4.182v-8.654c0 0-13.325 1.32-13.325 8.652zM6.662 27.112c-0.345 0-0.682-0.091-0.969-0.261s-0.511-0.413-0.643-0.696c-0.132-0.283-0.167-0.595-0.099-0.896s0.233-0.577 0.477-0.794 0.555-0.364 0.893-0.424c0.338-0.060 0.689-0.029 1.008 0.088s0.591 0.316 0.783 0.571c0.192 0.255 0.294 0.555 0.294 0.861 0.001 0.204-0.044 0.406-0.131 0.595s-0.216 0.36-0.378 0.505c-0.162 0.145-0.355 0.259-0.567 0.338s-0.439 0.119-0.669 0.119v-0.006z"></path>
<path d="M20.128 26.258h-1.286v1.328h-0.67v-3.25h2.116v0.542h-1.446v0.839h1.286v0.54zM23.346 26.035c0 0.32-0.057 0.6-0.17 0.842s-0.275 0.427-0.487 0.558c-0.21 0.131-0.451 0.196-0.723 0.196-0.269 0-0.51-0.065-0.721-0.194s-0.375-0.314-0.491-0.554c-0.116-0.241-0.175-0.518-0.176-0.83v-0.161c0-0.32 0.057-0.601 0.172-0.844 0.116-0.244 0.279-0.431 0.489-0.56 0.211-0.131 0.452-0.196 0.723-0.196s0.511 0.065 0.721 0.196c0.211 0.129 0.374 0.316 0.489 0.56 0.116 0.242 0.174 0.523 0.174 0.841v0.145zM22.668 25.888c0-0.341-0.061-0.6-0.183-0.777s-0.296-0.266-0.522-0.266c-0.225 0-0.398 0.088-0.52 0.263-0.122 0.174-0.184 0.43-0.185 0.768v0.158c0 0.332 0.061 0.589 0.183 0.772s0.298 0.275 0.527 0.275c0.225 0 0.397-0.088 0.518-0.263 0.121-0.177 0.182-0.434 0.183-0.772v-0.158zM25.518 26.734c0-0.126-0.045-0.223-0.134-0.29-0.089-0.068-0.25-0.14-0.482-0.214-0.232-0.076-0.416-0.15-0.551-0.223-0.369-0.199-0.554-0.468-0.554-0.806 0-0.176 0.049-0.332 0.147-0.469 0.1-0.138 0.242-0.246 0.426-0.324 0.186-0.077 0.394-0.116 0.625-0.116 0.232 0 0.439 0.042 0.621 0.127 0.181 0.083 0.322 0.202 0.422 0.355 0.101 0.153 0.152 0.327 0.152 0.522h-0.67c0-0.149-0.047-0.264-0.141-0.346-0.094-0.083-0.225-0.125-0.395-0.125-0.164 0-0.291 0.035-0.382 0.105-0.091 0.068-0.136 0.159-0.136 0.272 0 0.106 0.053 0.194 0.158 0.266 0.107 0.071 0.264 0.138 0.471 0.201 0.381 0.115 0.659 0.257 0.833 0.426s0.261 0.381 0.261 0.634c0 0.281-0.106 0.502-0.319 0.663-0.213 0.159-0.499 0.239-0.859 0.239-0.25 0-0.478-0.045-0.683-0.136-0.205-0.092-0.362-0.218-0.471-0.377-0.107-0.159-0.161-0.344-0.161-0.554h0.672c0 0.359 0.214 0.538 0.643 0.538 0.159 0 0.284-0.032 0.373-0.096 0.089-0.065 0.134-0.156 0.134-0.272zM29.092 24.879h-0.996v2.708h-0.67v-2.708h-0.982v-0.542h2.647v0.542zM31.431 26.178h-1.286v0.871h1.509v0.538h-2.179v-3.25h2.174v0.542h-1.504v0.775h1.286v0.525zM33.251 26.396h-0.533v1.19h-0.67v-3.25h1.208c0.384 0 0.68 0.086 0.888 0.257s0.312 0.413 0.312 0.725c0 0.222-0.048 0.407-0.145 0.556-0.095 0.147-0.24 0.265-0.435 0.353l0.703 1.328v0.031h-0.719l-0.609-1.19zM32.717 25.854h0.54c0.168 0 0.298-0.042 0.391-0.127 0.092-0.086 0.138-0.205 0.138-0.355 0-0.153-0.044-0.274-0.132-0.362-0.086-0.088-0.219-0.132-0.4-0.132h-0.538v0.975zM36.775 26.441v1.145h-0.67v-3.25h1.268c0.244 0 0.458 0.045 0.643 0.134 0.186 0.089 0.329 0.216 0.429 0.382 0.1 0.164 0.15 0.35 0.15 0.56 0 0.318-0.109 0.57-0.328 0.754-0.217 0.183-0.519 0.275-0.904 0.275h-0.587zM36.775 25.899h0.598c0.177 0 0.312-0.042 0.404-0.125 0.094-0.083 0.141-0.202 0.141-0.357 0-0.159-0.047-0.288-0.141-0.386s-0.223-0.149-0.388-0.152h-0.614v1.020zM41.012 26.178h-1.286v0.871h1.509v0.538h-2.179v-3.25h2.174v0.542h-1.504v0.775h1.286v0.525zM44.119 24.879h-0.995v2.708h-0.67v-2.708h-0.982v-0.542h2.647v0.542zM46.458 26.178h-1.286v0.871h1.509v0.538h-2.178v-3.25h2.174v0.542h-1.504v0.775h1.286v0.525zM48.277 26.396h-0.533v1.19h-0.67v-3.25h1.208c0.384 0 0.68 0.086 0.888 0.257s0.313 0.413 0.313 0.725c0 0.222-0.048 0.407-0.145 0.556-0.095 0.147-0.24 0.265-0.435 0.353l0.703 1.328v0.031h-0.719l-0.609-1.19zM47.744 25.854h0.54c0.168 0 0.298-0.042 0.391-0.127 0.092-0.086 0.138-0.205 0.138-0.355 0-0.153-0.044-0.274-0.132-0.362-0.086-0.088-0.219-0.132-0.4-0.132h-0.538v0.975zM51.679 26.734c0-0.126-0.045-0.223-0.134-0.29-0.089-0.068-0.25-0.14-0.482-0.214-0.232-0.076-0.416-0.15-0.551-0.223-0.369-0.199-0.554-0.468-0.554-0.806 0-0.176 0.049-0.332 0.147-0.469 0.1-0.138 0.242-0.246 0.426-0.324 0.186-0.077 0.394-0.116 0.625-0.116 0.232 0 0.439 0.042 0.621 0.127 0.182 0.083 0.322 0.202 0.422 0.355 0.101 0.153 0.152 0.327 0.152 0.522h-0.67c0-0.149-0.047-0.264-0.141-0.346-0.094-0.083-0.225-0.125-0.395-0.125-0.164 0-0.291 0.035-0.382 0.105-0.091 0.068-0.136 0.159-0.136 0.272 0 0.106 0.053 0.194 0.158 0.266 0.107 0.071 0.264 0.138 0.471 0.201 0.381 0.115 0.658 0.257 0.833 0.426s0.261 0.381 0.261 0.634c0 0.281-0.106 0.502-0.319 0.663-0.213 0.159-0.499 0.239-0.859 0.239-0.25 0-0.478-0.045-0.683-0.136-0.205-0.092-0.362-0.218-0.471-0.377-0.107-0.159-0.161-0.344-0.161-0.554h0.672c0 0.359 0.214 0.538 0.643 0.538 0.159 0 0.283-0.032 0.373-0.096 0.089-0.065 0.134-0.156 0.134-0.272z"></path>
</symbol>
<symbol id="icon-client5" viewBox="0 0 57 32">
<path d="M14.27 23.859c0.13 0.147 0.199 0.332 0.196 0.521 0.007 0.123-0.017 0.247-0.070 0.361s-0.132 0.216-0.233 0.297c-0.252 0.175-0.565 0.26-0.881 0.24h-1.549v-3.302h1.517c0.299-0.018 0.596 0.059 0.84 0.219 0.098 0.075 0.176 0.17 0.227 0.277s0.074 0.224 0.068 0.341c0.009 0.182-0.054 0.361-0.176 0.505-0.118 0.131-0.28 0.222-0.462 0.258 0.205 0.034 0.391 0.134 0.523 0.282zM12.454 23.36h0.648c0.147 0.010 0.294-0.029 0.412-0.11 0.049-0.040 0.087-0.090 0.111-0.146s0.034-0.116 0.028-0.176c0.005-0.060-0.005-0.12-0.029-0.175s-0.061-0.106-0.108-0.147c-0.122-0.083-0.273-0.123-0.425-0.111h-0.638v0.866zM13.578 24.627c0.052-0.041 0.093-0.093 0.12-0.151s0.038-0.121 0.034-0.184c0.004-0.064-0.008-0.127-0.035-0.186s-0.069-0.111-0.121-0.153c-0.127-0.086-0.283-0.128-0.44-0.119h-0.68v0.908h0.689c0.155 0.008 0.309-0.032 0.435-0.114z"></path>
<path d="M17.371 25.278l-0.844-1.291h-0.317v1.291h-0.726v-3.302h1.374c0.346-0.022 0.689 0.078 0.957 0.281 0.192 0.179 0.308 0.415 0.327 0.666s-0.061 0.499-0.224 0.7c-0.17 0.178-0.401 0.296-0.655 0.336l0.898 1.32h-0.789zM16.21 23.538h0.594c0.412 0 0.618-0.167 0.618-0.5 0.004-0.068-0.007-0.136-0.033-0.2s-0.066-0.122-0.118-0.171c-0.13-0.099-0.298-0.147-0.467-0.134h-0.601l0.007 1.005z"></path>
<path d="M21.339 24.614h-1.446l-0.255 0.665h-0.761l1.328-3.265h0.823l1.323 3.265h-0.761l-0.25-0.665zM21.145 24.114l-0.529-1.394-0.529 1.394h1.057z"></path>
<path d="M26.305 25.278h-0.721l-1.616-2.245v2.245h-0.719v-3.302h0.719l1.616 2.258v-2.258h0.721v3.302z"></path>
<path d="M30.417 24.488c-0.149 0.249-0.376 0.452-0.652 0.582-0.314 0.145-0.662 0.217-1.013 0.208h-1.283v-3.302h1.283c0.351-0.008 0.698 0.061 1.013 0.203 0.276 0.127 0.503 0.328 0.652 0.576 0.148 0.269 0.226 0.565 0.226 0.866s-0.077 0.598-0.226 0.866zM29.593 24.409c0.206-0.219 0.319-0.499 0.319-0.788s-0.113-0.569-0.319-0.788c-0.249-0.199-0.573-0.3-0.902-0.281h-0.5v2.137h0.5c0.329 0.019 0.654-0.082 0.902-0.281z"></path>
<path d="M21.79 3.609c0 0 9.301 3.215 9.103 7.867v7.869c0 0-9.294-3.217-9.1-7.869l-0.004-7.867z"></path>
<path d="M39.179 17.503c1.757-1.107 3.788-1.792 5.909-1.994v-2.463c-2.444 0.862-4.517 2.426-5.909 4.457z"></path>
<path d="M38.124 18.245c1.438-2.651 3.93-4.696 6.964-5.715v-7.098c0 0-13.245 4.58-12.965 11.205v11.203c0 0 0.59-0.205 1.519-0.589 0-0.358 0-0.719 0.042-1.082 0.274-3.076 1.871-5.926 4.44-7.924z"></path>
<path d="M36.864 22.407c0.070-0.777 0.225-1.546 0.463-2.294-1.599 1.725-2.568 3.866-2.77 6.122-0.019 0.213-0.030 0.426-0.035 0.645 0.752-0.331 1.628-0.744 2.548-1.229-0.235-1.067-0.304-2.159-0.206-3.244z"></path>
<path d="M37.391 22.447c-0.088 0.982-0.033 1.969 0.164 2.938 3.619-1.983 7.685-5.046 7.528-8.748v-0.323c-2.585 0.265-5.004 1.3-6.885 2.946-0.44 1.020-0.712 2.094-0.807 3.188z"></path>
</symbol>
<symbol id="icon-client6" viewBox="0 0 57 32">
<path d="M28.493 14.618c-0.236-0.315-0.349-0.686-0.323-1.061v-1.538c0-0.471 0.107-0.83 0.321-1.075s0.581-0.367 1.102-0.366c0.489 0 0.836 0.104 1.042 0.313 0.224 0.266 0.333 0.592 0.308 0.92v0.361h-0.875v-0.366c0.003-0.12-0.005-0.24-0.025-0.358-0.013-0.081-0.057-0.156-0.125-0.213-0.090-0.061-0.203-0.091-0.317-0.083-0.12-0.008-0.239 0.024-0.333 0.088-0.076 0.063-0.127 0.145-0.145 0.235-0.025 0.126-0.037 0.253-0.034 0.38v1.866c-0.014 0.18 0.025 0.36 0.112 0.524 0.044 0.055 0.104 0.099 0.175 0.127s0.149 0.038 0.226 0.029c0.112 0.008 0.223-0.022 0.31-0.084 0.071-0.061 0.117-0.141 0.13-0.227 0.020-0.124 0.030-0.249 0.027-0.374v-0.379h0.875v0.346c0.025 0.342-0.082 0.682-0.303 0.967-0.201 0.228-0.544 0.343-1.047 0.343s-0.884-0.122-1.1-0.375z"></path>
<path d="M32.137 14.633c-0.221-0.239-0.332-0.588-0.332-1.050v-1.617c0-0.457 0.11-0.802 0.332-1.037s0.591-0.351 1.109-0.35c0.515 0 0.882 0.117 1.103 0.35 0.221 0.235 0.333 0.58 0.333 1.037v1.617c0 0.457-0.112 0.807-0.337 1.048s-0.591 0.361-1.1 0.361c-0.509 0-0.886-0.122-1.109-0.36zM33.654 14.245c0.079-0.15 0.115-0.314 0.105-0.479v-1.98c0.010-0.161-0.025-0.322-0.103-0.469-0.044-0.057-0.106-0.101-0.179-0.129s-0.152-0.037-0.231-0.027c-0.079-0.009-0.159 0-0.231 0.028s-0.135 0.072-0.18 0.129c-0.080 0.146-0.116 0.308-0.105 0.469v1.99c-0.011 0.165 0.025 0.329 0.105 0.479 0.051 0.050 0.114 0.091 0.185 0.119s0.147 0.042 0.225 0.042c0.078 0 0.154-0.014 0.225-0.042s0.134-0.068 0.185-0.119v-0.009z"></path>
<path d="M35.735 10.626h0.942l0.708 2.984 0.725-2.984h0.917l0.092 4.308h-0.678l-0.072-2.994-0.699 2.994h-0.544l-0.725-3.005-0.067 3.005h-0.685l0.085-4.308z"></path>
<path d="M40.176 10.626h1.468c0.846 0 1.268 0.408 1.268 1.223 0 0.781-0.445 1.171-1.335 1.17h-0.5v1.915h-0.906l0.005-4.308zM41.43 12.467c0.090 0.010 0.18 0.003 0.266-0.021s0.165-0.063 0.232-0.115c0.104-0.146 0.15-0.316 0.13-0.486 0.005-0.131-0.010-0.263-0.044-0.391-0.013-0.043-0.036-0.083-0.067-0.118s-0.070-0.065-0.114-0.087c-0.126-0.052-0.265-0.076-0.404-0.069h-0.352v1.287h0.352z"></path>
<path d="M44.218 10.626h0.973l0.998 4.308h-0.844l-0.197-0.993h-0.868l-0.203 0.993h-0.857l0.998-4.308zM45.050 13.441l-0.339-1.808-0.339 1.808h0.678z"></path>
<path d="M46.996 10.626h0.634l1.214 2.457v-2.457h0.752v4.308h-0.603l-1.221-2.565v2.565h-0.777l0.002-4.308z"></path>
<path d="M51.357 13.291l-1.009-2.659h0.85l0.616 1.708 0.578-1.708h0.832l-0.997 2.659v1.642h-0.87v-1.642z"></path>
<path d="M29.892 16.817v0.225h-0.739v1.75h-0.31v-1.75h-0.743v-0.225h1.792z"></path>
<path d="M32.209 18.793h-0.239c-0.024 0.001-0.048-0.005-0.067-0.019-0.018-0.011-0.032-0.027-0.040-0.045l-0.214-0.469h-1.026l-0.214 0.469c-0.006 0.020-0.017 0.038-0.033 0.053-0.019 0.013-0.043 0.020-0.067 0.019h-0.239l0.906-1.976h0.315l0.917 1.968zM30.709 18.059h0.855l-0.362-0.804c-0.027-0.061-0.049-0.123-0.067-0.186-0.013 0.038-0.024 0.073-0.034 0.105l-0.033 0.083-0.359 0.802z"></path>
<path d="M33.771 18.599c0.057 0.003 0.114 0.003 0.17 0 0.049-0.004 0.097-0.012 0.145-0.023 0.044-0.009 0.088-0.021 0.13-0.036 0.040-0.014 0.080-0.031 0.121-0.048v-0.444h-0.362c-0.009 0-0.018-0.001-0.026-0.003s-0.016-0.007-0.023-0.012c-0.006-0.004-0.011-0.010-0.014-0.016s-0.005-0.013-0.004-0.020v-0.152h0.703v0.757c-0.057 0.035-0.118 0.067-0.181 0.094-0.065 0.028-0.132 0.050-0.201 0.067-0.074 0.019-0.15 0.032-0.227 0.041-0.088 0.008-0.176 0.013-0.264 0.012-0.156 0.001-0.311-0.024-0.457-0.073-0.136-0.047-0.259-0.117-0.362-0.206-0.101-0.090-0.18-0.196-0.234-0.313-0.057-0.131-0.085-0.27-0.083-0.41-0.002-0.141 0.026-0.281 0.082-0.413 0.052-0.117 0.132-0.224 0.234-0.313 0.103-0.089 0.227-0.159 0.362-0.205 0.155-0.050 0.32-0.075 0.486-0.074 0.084-0 0.169 0.006 0.252 0.017 0.074 0.010 0.146 0.027 0.216 0.050 0.063 0.021 0.124 0.047 0.181 0.078 0.056 0.031 0.108 0.065 0.158 0.103l-0.087 0.122c-0.007 0.011-0.017 0.021-0.029 0.027s-0.027 0.010-0.041 0.010c-0.020-0.001-0.040-0.006-0.056-0.016-0.027-0.013-0.056-0.028-0.089-0.047-0.038-0.021-0.079-0.039-0.121-0.053-0.054-0.019-0.11-0.033-0.167-0.044-0.076-0.012-0.153-0.018-0.23-0.017-0.12-0.001-0.238 0.017-0.35 0.055-0.101 0.035-0.192 0.088-0.266 0.156-0.075 0.071-0.132 0.155-0.169 0.246-0.081 0.214-0.081 0.445 0 0.659 0.040 0.093 0.101 0.178 0.181 0.249 0.074 0.068 0.164 0.121 0.265 0.156 0.115 0.034 0.237 0.047 0.359 0.039z"></path>
<path d="M36.659 18.567h0.989v0.225h-1.292v-1.976h0.31l-0.007 1.75z"></path>
<path d="M38.678 18.792h-0.31v-1.976h0.31v1.976z"></path>
<path d="M39.83 16.826c0.018 0.009 0.034 0.021 0.047 0.036l1.324 1.489c-0.002-0.023-0.002-0.047 0-0.070 0-0.022 0-0.044 0-0.064v-1.408h0.27v1.984h-0.156c-0.023 0.002-0.046-0.002-0.067-0.011-0.019-0.010-0.035-0.023-0.049-0.038l-1.323-1.488c0 0.023 0 0.045 0 0.067s0 0.042 0 0.061v1.408h-0.259v-1.976h0.161c0.017 0 0.035 0.003 0.051 0.009z"></path>
<path d="M43.753 16.817v0.217h-1.098v0.652h0.89v0.21h-0.89v0.674h1.098v0.217h-1.417v-1.971h1.417z"></path>
<path d="M11.286 4.616l13.757 3.372v11.818l-13.757-3.371v-11.819zM10.404 3.609v13.401l15.52 3.806v-13.399l-15.52-3.807z"></path>
<path d="M18.722 27.036l-15.522-3.809v-13.399l15.522 3.807v13.401z"></path>
<path d="M10.661 4.465l13.578 3.33-5.774 4.987-13.58-3.332 5.776-4.985zM10.404 3.609l-7.204 6.219 15.522 3.807 7.202-6.219-15.52-3.807z"></path>
<path d="M19.595 26.282l6.329-5.465-6.329-1.553v7.018z"></path>
</symbol>
<symbol id="icon-clock" viewBox="0 0 32 32">
<path fill="#212121" style="fill: var(--color1, #212121)" d="M31.297 15.301c-0.002-8.452-6.855-15.303-15.308-15.301s-15.303 6.855-15.301 15.308c0.001 6.658 4.307 12.551 10.649 14.576 0.061 0.019 0.124 0.029 0.187 0.029 0.121-0 0.239-0.032 0.342-0.094 0.135-0.080 0.236-0.207 0.283-0.356l3.865-12.25c1.057-0.005 1.909-0.866 1.903-1.923s-0.866-1.909-1.923-1.903c-0.284 0.001-0.565 0.067-0.82 0.191l-5.106-5.107c-0.253-0.245-0.657-0.238-0.902 0.016-0.239 0.247-0.239 0.639 0 0.886l5.103 5.109c-0.392 0.799-0.168 1.764 0.536 2.309l-3.683 11.673c-7.278-2.681-11.004-10.754-8.323-18.032s10.754-11.004 18.032-8.323 11.004 10.754 8.323 18.032c-1.31 3.556-4.001 6.431-7.462 7.973l-0.398-1.874c-0.073-0.344-0.411-0.565-0.756-0.492-0.109 0.023-0.209 0.074-0.292 0.148l-3.837 3.426c-0.263 0.234-0.287 0.637-0.052 0.9 0.076 0.085 0.174 0.149 0.283 0.184l4.899 1.563c0.335 0.108 0.694-0.077 0.802-0.412 0.034-0.106 0.040-0.219 0.017-0.328l-0.391-1.839c5.664-2.388 9.342-7.942 9.329-14.089zM15.992 14.664c0.352 0 0.638 0.286 0.638 0.638s-0.286 0.638-0.638 0.638c-0.352 0-0.638-0.285-0.638-0.638s0.285-0.638 0.638-0.638zM18.093 29.528l2.184-1.948 0.603 2.84-2.787-0.892z"></path>
<path fill="#2196f3" style="fill: var(--color2, #2196f3)" d="M15.354 3.185v1.275c0 0.352 0.285 0.638 0.638 0.638s0.638-0.285 0.638-0.638v-1.275c0-0.352-0.286-0.638-0.638-0.638s-0.638 0.286-0.638 0.638z"></path>
<path fill="#2196f3" style="fill: var(--color2, #2196f3)" d="M3.876 14.664c-0.352 0-0.638 0.286-0.638 0.638s0.285 0.638 0.638 0.638h1.275c0.352 0 0.638-0.285 0.638-0.638s-0.285-0.638-0.638-0.638h-1.275z"></path>
<path fill="#2196f3" style="fill: var(--color2, #2196f3)" d="M28.108 15.939c0.352 0 0.638-0.285 0.638-0.638s-0.285-0.638-0.638-0.638h-1.275c-0.352 0-0.638 0.286-0.638 0.638s0.286 0.638 0.638 0.638h1.275z"></path>
</symbol>
<symbol id="icon-diagram" viewBox="0 0 32 32">
<path fill="#2196f3" style="fill: var(--color2, #2196f3)" d="M14.926 14.965h1.066v4.798h-1.066v-4.797z"></path>
<path fill="#2196f3" style="fill: var(--color2, #2196f3)" d="M19.19 17.097h1.066v2.665h-1.066v-2.665z"></path>
<path fill="#2196f3" style="fill: var(--color2, #2196f3)" d="M10.661 18.696h1.066v1.066h-1.066v-1.066z"></path>
<path fill="#2196f3" style="fill: var(--color2, #2196f3)" d="M7.463 18.163h1.066v1.599h-1.066v-1.599z"></path>
<path fill="#212121" style="fill: var(--color1, #212121)" d="M1.599 28.291h25.587c0.883 0 1.599-0.716 1.599-1.599v-2.132c0-0.883-0.716-1.599-1.599-1.599h-0.533v-13.293l3.028-2.868c0.703 0.346 1.553 0.136 2.013-0.499s0.396-1.508-0.152-2.068-1.42-0.644-2.065-0.198c-0.644 0.446-0.873 1.292-0.542 2.002l-2.281 2.163v-1.23c0-0.883-0.716-1.599-1.599-1.599h-21.322c-0.883 0-1.599 0.716-1.599 1.599v15.992h-0.533c-0.883 0-1.599 0.716-1.599 1.599v2.132c0 0.883 0.716 1.599 1.599 1.599zM30.384 4.837c0.294 0 0.533 0.239 0.533 0.533s-0.239 0.533-0.533 0.533c-0.294 0-0.533-0.239-0.533-0.533s0.239-0.533 0.533-0.533zM3.198 6.969c0-0.294 0.239-0.533 0.533-0.533h21.322c0.294 0 0.533 0.239 0.533 0.533v2.239l-1.066 1.013v-2.186c0-0.294-0.239-0.533-0.533-0.533h-19.19c-0.294 0-0.533 0.239-0.533 0.533v13.326c0 0.294 0.239 0.533 0.533 0.533h19.19c0.294 0 0.533-0.239 0.533-0.533v-9.674l1.066-1.010v12.284h-22.388v-15.992zM7.996 13.899c-0.721-0.002-1.354 0.478-1.546 1.174s0.105 1.433 0.725 1.801c0.62 0.368 1.41 0.276 1.928-0.226l1.853 0.93c0.215 0.108 0.476 0.057 0.636-0.123l3.939-4.431 3.872 2.901c0.208 0.156 0.498 0.139 0.686-0.039l3.365-3.188v8.131h-18.124v-12.26h18.124v2.66l-3.771 3.572-3.904-2.927c-0.222-0.166-0.534-0.135-0.718 0.072l-3.993 4.493-1.493-0.746c0.011-0.064 0.018-0.129 0.020-0.193 0-0.883-0.716-1.599-1.599-1.599zM8.529 15.498c0 0.294-0.239 0.533-0.533 0.533s-0.533-0.239-0.533-0.533c0-0.294 0.239-0.533 0.533-0.533s0.533 0.239 0.533 0.533zM11.727 24.027h5.331v0.533c0 0.294-0.239 0.533-0.533 0.533h-4.264c-0.294 0-0.533-0.239-0.533-0.533v-0.533zM1.066 24.56c0-0.294 0.239-0.533 0.533-0.533h9.062v0.533c0 0.883 0.716 1.599 1.599 1.599h4.264c0.883 0 1.599-0.716 1.599-1.599v-0.533h9.062c0.294 0 0.533 0.239 0.533 0.533v2.132c0 0.294-0.239 0.533-0.533 0.533h-25.587c-0.294 0-0.533-0.239-0.533-0.533v-2.132z"></path>
</symbol>
<symbol id="icon-email" viewBox="0 0 43 32">
<path d="M38.667 0h-34.667c-2.206 0-4 1.794-4 4v24c0 2.206 1.794 4 4 4h34.667c2.206 0 4-1.794 4-4v-24c0-2.206-1.794-4-4-4zM38.667 2.667c0.181 0 0.353 0.038 0.511 0.103l-17.844 15.466-17.844-15.466c0.158-0.066 0.33-0.103 0.511-0.103h34.667zM38.667 29.333h-34.667c-0.736 0-1.333-0.598-1.333-1.333v-22.413l17.793 15.421c0.251 0.217 0.563 0.326 0.874 0.326s0.622-0.108 0.874-0.326l17.793-15.421v22.413c0 0.736-0.598 1.333-1.333 1.333z"></path>
</symbol>
<symbol id="icon-facebook" viewBox="0 0 32 32">
<path d="M21.329 5.313h2.921v-5.088c-0.504-0.069-2.237-0.225-4.256-0.225-4.212 0-7.097 2.649-7.097 7.519v4.481h-4.648v5.688h4.648v14.312h5.699v-14.311h4.46l0.708-5.688h-5.169v-3.919c0.001-1.644 0.444-2.769 2.735-2.769z"></path>
</symbol>
<symbol id="icon-instagram" viewBox="0 0 32 32">
<path d="M31.969 9.408c-0.075-1.7-0.35-2.869-0.744-3.882-0.406-1.075-1.032-2.038-1.851-2.838-0.8-0.813-1.769-1.444-2.832-1.844-1.019-0.394-2.182-0.669-3.882-0.744-1.713-0.081-2.257-0.1-6.601-0.1s-4.888 0.019-6.595 0.094c-1.7 0.075-2.869 0.35-3.882 0.744-1.075 0.406-2.038 1.031-2.838 1.85-0.813 0.8-1.444 1.769-1.844 2.832-0.394 1.019-0.669 2.182-0.744 3.882-0.081 1.713-0.1 2.257-0.1 6.601s0.019 4.888 0.094 6.595c0.075 1.7 0.35 2.869 0.744 3.882 0.406 1.075 1.038 2.038 1.85 2.838 0.8 0.813 1.769 1.444 2.832 1.844 1.019 0.394 2.182 0.669 3.882 0.744 1.706 0.075 2.25 0.094 6.595 0.094s4.888-0.019 6.595-0.094c1.7-0.075 2.869-0.35 3.882-0.744 2.151-0.832 3.851-2.532 4.682-4.682 0.394-1.019 0.669-2.182 0.744-3.882 0.075-1.707 0.094-2.251 0.094-6.595s-0.006-4.888-0.081-6.595zM29.087 22.473c-0.069 1.563-0.331 2.407-0.55 2.969-0.538 1.394-1.644 2.5-3.038 3.038-0.563 0.219-1.413 0.481-2.969 0.55-1.688 0.075-2.194 0.094-6.464 0.094s-4.782-0.019-6.464-0.094c-1.563-0.069-2.407-0.331-2.969-0.55-0.694-0.256-1.325-0.663-1.838-1.194-0.531-0.519-0.938-1.144-1.194-1.838-0.219-0.563-0.481-1.413-0.55-2.969-0.075-1.688-0.094-2.194-0.094-6.464s0.019-4.782 0.094-6.464c0.069-1.563 0.331-2.407 0.55-2.969 0.256-0.694 0.663-1.325 1.2-1.838 0.519-0.531 1.144-0.938 1.838-1.194 0.563-0.219 1.413-0.481 2.969-0.55 1.688-0.075 2.194-0.094 6.464-0.094 4.276 0 4.782 0.019 6.464 0.094 1.563 0.069 2.407 0.331 2.969 0.55 0.694 0.256 1.325 0.662 1.838 1.194 0.531 0.519 0.938 1.144 1.194 1.838 0.219 0.563 0.481 1.413 0.55 2.969 0.075 1.688 0.094 2.194 0.094 6.464s-0.019 4.77-0.094 6.458z"></path>
<path d="M16.059 7.783c-4.538 0-8.22 3.682-8.22 8.22s3.682 8.22 8.22 8.22c4.539 0 8.22-3.682 8.22-8.22s-3.682-8.22-8.22-8.22zM16.059 21.335c-2.944 0-5.332-2.388-5.332-5.332s2.388-5.332 5.332-5.332c2.944 0 5.332 2.388 5.332 5.332s-2.388 5.332-5.332 5.332z"></path>
<path d="M26.524 7.458c0 1.060-0.859 1.919-1.919 1.919s-1.919-0.859-1.919-1.919c0-1.060 0.859-1.919 1.919-1.919s1.919 0.859 1.919 1.919z"></path>
</symbol>
<symbol id="icon-linkedin" viewBox="0 0 32 32">
<path d="M31.992 32v-0.001h0.008v-11.736c0-5.741-1.236-10.164-7.948-10.164-3.227 0-5.392 1.771-6.276 3.449h-0.093v-2.913h-6.364v21.364h6.627v-10.579c0-2.785 0.528-5.479 3.977-5.479 3.399 0 3.449 3.179 3.449 5.657v10.401h6.62z"></path>
<path d="M0.528 10.636h6.635v21.364h-6.635v-21.364z"></path>
<path d="M3.843 0c-2.121 0-3.843 1.721-3.843 3.843s1.721 3.879 3.843 3.879c2.121 0 3.843-1.757 3.843-3.879-0.001-2.121-1.723-3.843-3.843-3.843v0z"></path>
</symbol>
<symbol id="icon-phone" viewBox="0 0 20 32">
<path d="M17 0h-14c-1.654 0-3 1.346-3 3v26c0 1.654 1.346 3 3 3h14c1.654 0 3-1.346 3-3v-26c0-1.654-1.346-3-3-3zM3 2h14c0.552 0 1 0.448 1 1v21h-16v-21c0-0.552 0.448-1 1-1zM17 30h-14c-0.552 0-1-0.448-1-1v-3h16v3c0 0.552-0.448 1-1 1z"></path>
<path d="M4.707 27.478c0.391 0.365 0.391 0.956 0 1.321s-1.024 0.365-1.414 0c-0.391-0.365-0.391-0.956 0-1.321s1.024-0.365 1.414 0z"></path>
</symbol>
<symbol id="icon-twitter" viewBox="0 0 32 32">
<path d="M23.273 11.49c-0.541 0.237-1.117 0.394-1.718 0.471 0.618-0.369 1.090-0.949 1.312-1.648-0.576 0.344-1.213 0.586-1.891 0.722-0.547-0.583-1.327-0.944-2.178-0.944-1.651 0-2.98 1.34-2.98 2.983 0 0.236 0.020 0.464 0.069 0.68-2.479-0.121-4.673-1.309-6.146-3.119-0.257 0.446-0.408 0.957-0.408 1.507 0 1.033 0.532 1.948 1.325 2.478-0.479-0.009-0.949-0.148-1.347-0.367 0 0.009 0 0.021 0 0.033 0 1.449 1.034 2.653 2.389 2.93-0.243 0.066-0.507 0.098-0.782 0.098-0.191 0-0.384-0.011-0.565-0.051 0.386 1.181 1.483 2.049 2.786 2.077-1.015 0.794-2.303 1.272-3.697 1.272-0.245 0-0.479-0.011-0.714-0.041 1.321 0.852 2.886 1.338 4.575 1.338 5.487 0 8.487-4.545 8.487-8.485 0-0.132-0.005-0.259-0.011-0.385 0.592-0.42 1.089-0.944 1.495-1.548z"></path>
</symbol>
<symbol id="icon-close" viewBox="0 0 32 32">
<path d="M32 3.223l-3.223-3.223-12.777 12.777-12.777-12.777-3.223 3.223 12.777 12.777-12.777 12.777 3.223 3.223 12.777-12.777 12.777 12.777 3.223-3.223-12.777-12.777 12.777-12.777z"></path>
</symbol>
<symbol id="icon-person" viewBox="0 0 32 32">
<path d="M16 16c4.42 0 8-3.58 8-8s-3.58-8-8-8c-4.42 0-8 3.58-8 8s3.58 8 8 8zM16 20c-5.34 0-16 2.68-16 8v2c0 1.1 0.9 2 2 2h28c1.1 0 2-0.9 2-2v-2c0-5.32-10.66-8-16-8z"></path>
</symbol>
<symbol id="icon-phone_form" viewBox="0 0 32 32">
<path d="M27.419 20.852l-4.201-0.48c-1.009-0.116-2.002 0.232-2.713 0.943l-3.044 3.044c-4.681-2.382-8.519-6.203-10.901-10.901l3.060-3.060c0.711-0.711 1.059-1.704 0.943-2.713l-0.48-4.168c-0.198-1.671-1.604-2.928-3.292-2.928h-2.862c-1.869 0-3.424 1.555-3.308 3.424 0.877 14.126 12.174 25.407 26.284 26.284 1.869 0.116 3.424-1.439 3.424-3.308v-2.862c0.016-1.671-1.241-3.077-2.911-3.275z"></path>
</symbol>
<symbol id="icon-email-form" viewBox="0 0 43 32">
<path d="M37.333 0h-32c-2.2 0-3.98 1.8-3.98 4l-0.020 24c0 2.2 1.8 4 4 4h32c2.2 0 4-1.8 4-4v-24c0-2.2-1.8-4-4-4zM36.533 8.5l-14.14 8.84c-0.64 0.4-1.48 0.4-2.12 0l-14.14-8.84c-0.5-0.32-0.8-0.86-0.8-1.44 0-1.34 1.46-2.14 2.6-1.44l13.4 8.38 13.4-8.38c1.14-0.7 2.6 0.1 2.6 1.44 0 0.58-0.3 1.12-0.8 1.44z"></path>
</symbol>
<symbol id="icon-check" viewBox="0 0 34 32">
<path fill="#2196f3" style="fill: var(--color1, #2196f3)" d="M4.267 0h25.6c2.356 0 4.267 1.91 4.267 4.267v23.467c0 2.356-1.91 4.267-4.267 4.267h-25.6c-2.356 0-4.267-1.91-4.267-4.267v-23.467c0-2.356 1.91-4.267 4.267-4.267z"></path>
<path fill="#fff" style="fill: var(--color2, #fff); stroke: var(--color2, #fff)" stroke="#fff" stroke-linejoin="miter" stroke-linecap="butt" stroke-miterlimit="4" stroke-width="0.4267" d="M8.442 16.537l-0.147-0.14-2.205 2.088 7.767 7.41 16.318-15.567-2.19-2.089-14.128 13.465-5.416-5.167z"></path>
</symbol>
<symbol id="icon-send" viewBox="0 0 32 32">
<path fill="#fff" style="fill: var(--color1, #fff)" d="M32 0l-32 18 10.227 3.788 15.773-14.788-11.998 16.186 0.010 0.004-0.012-0.004v8.814l5.735-6.691 7.265 2.691 5-28z"></path>
</symbol>
</defs>
</svg>
